<svg width="1600" height="920" viewBox="0 0 1600 920" fill="none" xmlns="http://www.w3.org/2000/svg">
  <defs>
    <linearGradient id="sleepBg" x1="180" y1="80" x2="1420" y2="860" gradientUnits="userSpaceOnUse">
      <stop stop-color="#FBF5EC"/>
      <stop offset="1" stop-color="#EEE4D3"/>
    </linearGradient>
    <radialGradient id="sleepOrb" cx="0" cy="0" r="1" gradientUnits="userSpaceOnUse" gradientTransform="translate(1320 160) rotate(90) scale(260 260)">
      <stop stop-color="#8FD4CC" stop-opacity="0.38"/>
      <stop offset="1" stop-color="#8FD4CC" stop-opacity="0"/>
    </radialGradient>
    <linearGradient id="sleepPanel" x1="240" y1="120" x2="1360" y2="760" gradientUnits="userSpaceOnUse">
      <stop stop-color="#FFFDF8"/>
      <stop offset="1" stop-color="#FCF6ED"/>
    </linearGradient>
    <filter id="sleepShadow" x="190" y="90" width="1220" height="740" filterUnits="userSpaceOnUse" color-interpolation-filters="sRGB">
      <feDropShadow dx="0" dy="26" stdDeviation="28" flood-color="#7E6140" flood-opacity="0.13"/>
    </filter>
  </defs>

  <rect width="1600" height="920" rx="40" fill="url(#sleepBg)"/>
  <rect width="1600" height="920" rx="40" fill="url(#sleepOrb)"/>

  <g filter="url(#sleepShadow)">
    <rect x="210" y="108" width="1180" height="704" rx="34" fill="url(#sleepPanel)" stroke="#E7DDCD"/>
  </g>

  <text x="270" y="196" fill="#0F766E" font-size="16" font-family="Arial, Helvetica, sans-serif" font-weight="700" letter-spacing="2.6">SLEEP SURFACE</text>
  <text x="270" y="268" fill="#201D18" font-size="58" font-family="Georgia, 'Times New Roman', serif" font-weight="700">Nightly sleep,</text>
  <text x="270" y="324" fill="#201D18" font-size="58" font-family="Georgia, 'Times New Roman', serif" font-weight="700">with context instead of guesswork.</text>
  <text x="272" y="366" fill="#6E655B" font-size="21" font-family="Arial, Helvetica, sans-serif">Totals, efficiency, timing, and regularity</text>
  <text x="272" y="396" fill="#6E655B" font-size="21" font-family="Arial, Helvetica, sans-serif">are read against your own recent pattern.</text>

  <rect x="270" y="450" width="650" height="300" rx="28" fill="#FFF9F1" stroke="#E8DDCC"/>
  <text x="310" y="495" fill="#0F766E" font-size="16" font-family="Arial, Helvetica, sans-serif" font-weight="700" letter-spacing="2.6">7-DAY TREND</text>
  <text x="310" y="532" fill="#1F1C18" font-size="34" font-family="Georgia, 'Times New Roman', serif" font-weight="700">Sleep duration</text>

  <path d="M336 690C382 658 428 612 474 620C520 628 566 560 612 556C658 552 704 632 750 610C796 588 842 500 888 518" stroke="#0F766E" stroke-width="6" stroke-linecap="round"/>
  <path d="M336 690H888" stroke="#D9CEBE" stroke-width="2"/>
  <path d="M336 640H888" stroke="#E9DED0" stroke-width="2" stroke-dasharray="8 10"/>
  <path d="M336 590H888" stroke="#E9DED0" stroke-width="2" stroke-dasharray="8 10"/>
  <path d="M336 540H888" stroke="#E9DED0" stroke-width="2" stroke-dasharray="8 10"/>
  <circle cx="474" cy="620" r="8" fill="#0F766E"/>
  <circle cx="612" cy="556" r="8" fill="#0F766E"/>
  <circle cx="888" cy="518" r="8" fill="#0F766E"/>
  <text x="334" y="722" fill="#7A7064" font-size="14" font-family="Arial, Helvetica, sans-serif">Mar 8</text>
  <text x="867" y="722" text-anchor="end" fill="#7A7064" font-size="14" font-family="Arial, Helvetica, sans-serif">Mar 14</text>

  <rect x="954" y="450" width="376" height="300" rx="28" fill="#FFF9F1" stroke="#E8DDCC"/>
  <text x="992" y="495" fill="#0F766E" font-size="16" font-family="Arial, Helvetica, sans-serif" font-weight="700" letter-spacing="2.6">BEDTIME CONSISTENCY</text>
  <text x="992" y="532" fill="#1F1C18" font-size="30" font-family="Georgia, 'Times New Roman', serif" font-weight="700">Sleep timing regularity</text>

  <rect x="992" y="560" width="140" height="86" rx="22" fill="#F7EFE2"/>
  <text x="1016" y="592" fill="#7A7064" font-size="14" font-family="Arial, Helvetica, sans-serif">7-night midpoint</text>
  <text x="1016" y="628" fill="#1F1C18" font-size="28" font-family="Arial, Helvetica, sans-serif" font-weight="700">10:55 PM</text>

  <rect x="1144" y="560" width="98" height="86" rx="22" fill="#F7EFE2"/>
  <text x="1166" y="592" fill="#7A7064" font-size="15" font-family="Arial, Helvetica, sans-serif">Drift</text>
  <text x="1166" y="628" fill="#1F1C18" font-size="28" font-family="Arial, Helvetica, sans-serif" font-weight="700">18 min</text>

  <rect x="1248" y="560" width="82" height="86" rx="22" fill="#DFF2EC"/>
  <text x="1289" y="592" text-anchor="middle" fill="#0F766E" font-size="14" font-family="Arial, Helvetica, sans-serif">State</text>
  <text x="1289" y="626" text-anchor="middle" fill="#0F766E" font-size="20" font-family="Arial, Helvetica, sans-serif" font-weight="700">Steady</text>

  <text x="992" y="688" fill="#7A7064" font-size="13" font-family="Arial, Helvetica, sans-serif" letter-spacing="1.6">8 PM</text>
  <text x="1066" y="688" fill="#7A7064" font-size="13" font-family="Arial, Helvetica, sans-serif" letter-spacing="1.6">10 PM</text>
  <text x="1146" y="688" fill="#7A7064" font-size="13" font-family="Arial, Helvetica, sans-serif" letter-spacing="1.6">12 AM</text>
  <text x="1233" y="688" fill="#7A7064" font-size="13" font-family="Arial, Helvetica, sans-serif" letter-spacing="1.6">2 AM</text>

  <g>
    <text x="992" y="724" fill="#7A7064" font-size="15" font-family="Arial, Helvetica, sans-serif">Mar 10</text>
    <rect x="1060" y="713" width="230" height="14" rx="7" fill="#F0E8DC"/>
    <rect x="1148" y="708" width="3" height="24" rx="1.5" fill="#A98344"/>
    <circle cx="1124" cy="720" r="8" fill="#0F766E"/>
    <text x="1300" y="724" text-anchor="end" fill="#7A7064" font-size="15" font-family="Arial, Helvetica, sans-serif">10:40 PM</text>
  </g>
  <g>
    <text x="992" y="756" fill="#7A7064" font-size="15" font-family="Arial, Helvetica, sans-serif">Mar 11</text>
    <rect x="1060" y="745" width="230" height="14" rx="7" fill="#F0E8DC"/>
    <rect x="1148" y="740" width="3" height="24" rx="1.5" fill="#A98344"/>
    <circle cx="1156" cy="752" r="8" fill="#0F766E"/>
    <text x="1300" y="756" text-anchor="end" fill="#7A7064" font-size="15" font-family="Arial, Helvetica, sans-serif">10:58 PM</text>
  </g>
  <g>
    <text x="992" y="788" fill="#7A7064" font-size="15" font-family="Arial, Helvetica, sans-serif">Mar 12</text>
    <rect x="1060" y="777" width="230" height="14" rx="7" fill="#F0E8DC"/>
    <rect x="1148" y="772" width="3" height="24" rx="1.5" fill="#A98344"/>
    <circle cx="1174" cy="784" r="8" fill="#0F766E"/>
    <text x="1300" y="788" text-anchor="end" fill="#7A7064" font-size="15" font-family="Arial, Helvetica, sans-serif">11:09 PM</text>
  </g>
</svg>
