<svg width="1600" height="920" viewBox="0 0 1600 920" fill="none" xmlns="http://www.w3.org/2000/svg">
  <defs>
    <linearGradient id="bg" x1="200" y1="80" x2="1420" y2="860" gradientUnits="userSpaceOnUse">
      <stop stop-color="#FBF5EC"/>
      <stop offset="1" stop-color="#EEE3D3"/>
    </linearGradient>
    <radialGradient id="glow" cx="0" cy="0" r="1" gradientUnits="userSpaceOnUse" gradientTransform="translate(1260 180) rotate(90) scale(260 260)">
      <stop stop-color="#8FD4CC" stop-opacity="0.34"/>
      <stop offset="1" stop-color="#8FD4CC" stop-opacity="0"/>
    </radialGradient>
    <filter id="shadow" x="180" y="100" width="1240" height="760" filterUnits="userSpaceOnUse" color-interpolation-filters="sRGB">
      <feDropShadow dx="0" dy="26" stdDeviation="28" flood-color="#7E6140" flood-opacity="0.13"/>
    </filter>
  </defs>

  <rect width="1600" height="920" rx="40" fill="url(#bg)"/>
  <rect width="1600" height="920" rx="40" fill="url(#glow)"/>

  <g filter="url(#shadow)">
    <rect x="210" y="120" width="1180" height="700" rx="34" fill="#FFFBF6" stroke="#E7DDCD"/>
  </g>

  <text x="280" y="208" fill="#0F766E" font-size="16" font-family="Arial, Helvetica, sans-serif" font-weight="700" letter-spacing="2.6">SLEEP SURFACE</text>
  <text x="280" y="286" fill="#201D18" font-size="60" font-family="Georgia, 'Times New Roman', serif" font-weight="700">Nightly sleep,</text>
  <text x="280" y="346" fill="#201D18" font-size="60" font-family="Georgia, 'Times New Roman', serif" font-weight="700">with context instead of guesswork.</text>
  <text x="282" y="390" fill="#6E655B" font-size="22" font-family="Arial, Helvetica, sans-serif">Sleep totals, efficiency, timing, and bedtime regularity</text>
  <text x="282" y="420" fill="#6E655B" font-size="22" font-family="Arial, Helvetica, sans-serif">are measured against your recent pattern.</text>

  <rect x="280" y="470" width="600" height="270" rx="28" fill="#FFF9F1" stroke="#E8DDCC"/>
  <text x="320" y="514" fill="#0F766E" font-size="16" font-family="Arial, Helvetica, sans-serif" font-weight="700" letter-spacing="2.6">7-DAY TREND</text>
  <text x="320" y="550" fill="#1F1C18" font-size="34" font-family="Georgia, 'Times New Roman', serif" font-weight="700">Sleep duration</text>
  <path d="M356 682C404 648 452 606 500 614C548 622 596 554 644 548C692 542 740 626 788 602C836 578 884 492 932 506" stroke="#0F766E" stroke-width="6" stroke-linecap="round"/>
  <path d="M356 682H932" stroke="#D9CEBE" stroke-width="2"/>
  <path d="M356 632H932" stroke="#E9DED0" stroke-width="2" stroke-dasharray="8 10"/>
  <path d="M356 582H932" stroke="#E9DED0" stroke-width="2" stroke-dasharray="8 10"/>
  <circle cx="500" cy="614" r="8" fill="#0F766E"/>
  <circle cx="644" cy="548" r="8" fill="#0F766E"/>
  <circle cx="932" cy="506" r="8" fill="#0F766E"/>
  <text x="354" y="712" fill="#7A7064" font-size="14" font-family="Arial, Helvetica, sans-serif">Mar 8</text>
  <text x="932" y="712" text-anchor="end" fill="#7A7064" font-size="14" font-family="Arial, Helvetica, sans-serif">Mar 14</text>

  <rect x="920" y="470" width="430" height="270" rx="28" fill="#FFF9F1" stroke="#E8DDCC"/>
  <text x="958" y="514" fill="#0F766E" font-size="16" font-family="Arial, Helvetica, sans-serif" font-weight="700" letter-spacing="2.4">BEDTIME CONSISTENCY</text>
  <text x="958" y="548" fill="#1F1C18" font-size="30" font-family="Georgia, 'Times New Roman', serif" font-weight="700">Steady sleep timing</text>

  <rect x="958" y="572" width="124" height="74" rx="20" fill="#F7EFE2"/>
  <text x="978" y="600" fill="#7A7064" font-size="13" font-family="Arial, Helvetica, sans-serif">Midpoint</text>
  <text x="978" y="632" fill="#1F1C18" font-size="28" font-family="Arial, Helvetica, sans-serif" font-weight="700">10:55 PM</text>

  <rect x="1096" y="572" width="88" height="74" rx="20" fill="#F7EFE2"/>
  <text x="1115" y="600" fill="#7A7064" font-size="13" font-family="Arial, Helvetica, sans-serif">Drift</text>
  <text x="1115" y="632" fill="#1F1C18" font-size="28" font-family="Arial, Helvetica, sans-serif" font-weight="700">18m</text>

  <rect x="1198" y="572" width="98" height="74" rx="20" fill="#DFF2EC"/>
  <text x="1247" y="600" text-anchor="middle" fill="#0F766E" font-size="13" font-family="Arial, Helvetica, sans-serif">State</text>
  <text x="1247" y="630" text-anchor="middle" fill="#0F766E" font-size="24" font-family="Arial, Helvetica, sans-serif" font-weight="700">Steady</text>

  <text x="958" y="682" fill="#7A7064" font-size="13" font-family="Arial, Helvetica, sans-serif" letter-spacing="1.6">8 PM</text>
  <text x="1034" y="682" fill="#7A7064" font-size="13" font-family="Arial, Helvetica, sans-serif" letter-spacing="1.6">10 PM</text>
  <text x="1114" y="682" fill="#7A7064" font-size="13" font-family="Arial, Helvetica, sans-serif" letter-spacing="1.6">12 AM</text>
  <text x="1198" y="682" fill="#7A7064" font-size="13" font-family="Arial, Helvetica, sans-serif" letter-spacing="1.6">2 AM</text>

  <g>
    <text x="958" y="712" fill="#7A7064" font-size="15" font-family="Arial, Helvetica, sans-serif">Mar 10</text>
    <rect x="1026" y="702" width="244" height="12" rx="6" fill="#F0E8DC"/>
    <rect x="1138" y="694" width="3" height="26" rx="1.5" fill="#A98344"/>
    <circle cx="1112" cy="708" r="8" fill="#0F766E"/>
    <text x="1310" y="712" text-anchor="end" fill="#7A7064" font-size="15" font-family="Arial, Helvetica, sans-serif">10:40 PM</text>
  </g>
  <g>
    <text x="958" y="742" fill="#7A7064" font-size="15" font-family="Arial, Helvetica, sans-serif">Mar 11</text>
    <rect x="1026" y="732" width="244" height="12" rx="6" fill="#F0E8DC"/>
    <rect x="1138" y="724" width="3" height="26" rx="1.5" fill="#A98344"/>
    <circle cx="1148" cy="738" r="8" fill="#0F766E"/>
    <text x="1310" y="742" text-anchor="end" fill="#7A7064" font-size="15" font-family="Arial, Helvetica, sans-serif">10:58 PM</text>
  </g>
  <g>
    <text x="958" y="772" fill="#7A7064" font-size="15" font-family="Arial, Helvetica, sans-serif">Mar 12</text>
    <rect x="1026" y="762" width="244" height="12" rx="6" fill="#F0E8DC"/>
    <rect x="1138" y="754" width="3" height="26" rx="1.5" fill="#A98344"/>
    <circle cx="1164" cy="768" r="8" fill="#0F766E"/>
    <text x="1310" y="772" text-anchor="end" fill="#7A7064" font-size="15" font-family="Arial, Helvetica, sans-serif">11:09 PM</text>
  </g>
</svg>
